{
  "accessors": [
    {
      "bufferView": 2,
      "componentType": 5126,
      "count": 6999,
      "max": [
        0.36853736639022827,
        1.7852500677108765,
        0.11750441044569016
      ],
      "min": [
        -0.3685368299484253,
        -0.017710000276565552,
        -0.18108312785625458
      ],
      "type": "VEC3"
    },
    {
      "bufferView": 2,
      "byteOffset": 83988,
      "componentType": 5126,
      "count": 6999,
      "max": [
        0.9999802708625793,
        0.9999638199806213,
        0.9999829530715942
      ],
      "min": [
        -0.999980092048645,
        -0.999955415725708,
        -0.9999637603759766
      ],
      "type": "VEC3"
    },
    {
      "bufferView": 1,
      "componentType": 5126,
      "count": 6999,
      "max": [
        0.9960629940032959,
        0.9982200264930725
      ],
      "min": [
        0.007872000336647034,
        0.007731974124908447
      ],
      "type": "VEC2"
    },
    {
      "bufferView": 0,
      "componentType": 5125,
      "count": 28914,
      "type": "SCALAR"
    },
    {
      "bufferView": 2,
      "byteOffset": 167976,
      "componentType": 5126,
      "count": 36203,
      "max": [
        0.36650070548057556,
        1.765952229499817,
        0.08246913552284241
      ],
      "min": [
        -0.3665076792240143,
        -0.002242432441562414,
        -0.15987353026866913
      ],
      "type": "VEC3"
    },
    {
      "bufferView": 2,
      "byteOffset": 602412,
      "componentType": 5126,
      "count": 36203,
      "max": [
        1.0,
        0.9999886751174927,
        1.0
      ],
      "min": [
        -1.0,
        -0.9999999403953552,
        -1.0
      ],
      "type": "VEC3"
    },
    {
      "bufferView": 3,
      "componentType": 5126,
      "count": 36203,
      "max": [
        0.9999825358390808,
        0.9998839497566223,
        0.9999314546585083,
        1.0
      ],
      "min": [
        -0.9999638199806213,
        -0.9999974370002747,
        -0.9999567270278931,
        -1.0
      ],
      "type": "VEC4"
    },
    {
      "bufferView": 1,
      "byteOffset": 55992,
      "componentType": 5126,
      "count": 36203,
      "max": [
        0.9956551790237427,
        0.9995899200439453
      ],
      "min": [
        0.0004100798978470266,
        0.002443850040435791
      ],
      "type": "VEC2"
    },
    {
      "bufferView": 1,
      "byteOffset": 345616,
      "componentType": 5126,
      "count": 36203,
      "max": [
        0.9956551790237427,
        0.9995899200439453
      ],
      "min": [
        0.0004100798978470266,
        0.002443850040435791
      ],
      "type": "VEC2"
    },
    {
      "bufferView": 1,
      "byteOffset": 635240,
      "componentType": 5126,
      "count": 36203,
      "max": [
        0.9956551790237427,
        0.9995899200439453
      ],
      "min": [
        0.0004100798978470266,
        0.002443850040435791
      ],
      "type": "VEC2"
    },
    {
      "bufferView": 0,
      "byteOffset": 115656,
      "componentType": 5125,
      "count": 103956,
      "type": "SCALAR"
    },
    {
      "bufferView": 2,
      "byteOffset": 1036848,
      "componentType": 5126,
      "count": 1946,
      "max": [
        0.369840532541275,
        1.7960997819900513,
        -0.0040619331412017345
      ],
      "min": [
        -0.31807878613471985,
        0.38329294323921204,
        -0.11085441708564758
      ],
      "type": "VEC3"
    },
    {
      "bufferView": 2,
      "byteOffset": 1060200,
      "componentType": 5126,
      "count": 1946,
      "max": [
        0.9931888580322266,
        1.0,
        1.0
      ],
      "min": [
        -0.9931888580322266,
        -1.0,
        -1.0
      ],
      "type": "VEC3"
    },
    {
      "bufferView": 1,
      "byteOffset": 924864,
      "componentType": 5126,
      "count": 1946,
      "max": [
        1.0,
        1.0000001192092896
      ],
      "min": [
        0.0,
        0.0
      ],
      "type": "VEC2"
    },
    {
      "bufferView": 0,
      "byteOffset": 531480,
      "componentType": 5125,
      "count": 8232,
      "type": "SCALAR"
    },
    {
      "bufferView": 2,
      "byteOffset": 1083552,
      "componentType": 5126,
      "count": 5682,
      "max": [
        0.5635484457015991,
        1.8495467901229858,
        -0.004637508187443018
      ],
      "min": [
        -0.5089357495307922,
        0.5075691342353821,
        -0.11027884483337402
      ],
      "type": "VEC3"
    },
    {
      "bufferView": 2,
      "byteOffset": 1151736,
      "componentType": 5126,
      "count": 5682,
      "max": [
        2.238939714516164e-06,
        0.0,
        1.0
      ],
      "min": [
        -3.9204119275382254e-06,
        0.0,
        -1.0
      ],
      "type": "VEC3"
    },
    {
      "bufferView": 1,
      "byteOffset": 940432,
      "componentType": 5126,
      "count": 5682,
      "max": [
        0.9980080127716064,
        0.9981927871704102
      ],
      "min": [
        0.0018379123648628592,
        0.0019919276237487793
      ],
      "type": "VEC2"
    },
    {
      "bufferView": 0,
      "byteOffset": 564408,
      "componentType": 5125,
      "count": 16374,
      "type": "SCALAR"
    },
    {
      "bufferView": 2,
      "byteOffset": 1219920,
      "componentType": 5126,
      "count": 1176,
      "max": [
        0.619220495223999,
        1.8744947910308838,
        -0.005159997381269932
      ],
      "min": [
        -0.564431369304657,
        0.4872713088989258,
        -0.10975635051727295
      ],
      "type": "VEC3"
    },
    {
      "bufferView": 2,
      "byteOffset": 1234032,
      "componentType": 5126,
      "count": 1176,
      "max": [
        1.0,
        0.9999975562095642,
        1.0
      ],
      "min": [
        -1.0,
        -0.9999975562095642,
        -1.0
      ],
      "type": "VEC3"
    },
    {
      "bufferView": 1,
      "byteOffset": 985888,
      "componentType": 5126,
      "count": 1176,
      "max": [
        0.65625,
        0.9998853206634521
      ],
      "min": [
        0.3442084491252899,
        0.00011467933654785156
      ],
      "type": "VEC2"
    },
    {
      "bufferView": 0,
      "byteOffset": 629904,
      "componentType": 5125,
      "count": 3444,
      "type": "SCALAR"
    }
  ],
  "asset": {
    "extras": {
      "author": "brianj.seely (https://sketchfab.com/brianj.seely)",
      "license": "CC-BY-4.0 (http://creativecommons.org/licenses/by/4.0/)",
      "source": "https://sketchfab.com/3d-models/nervous-system-b4c0239fe0a34bbb92606f8a5248d0fa",
      "title": "Nervous System"
    },
    "generator": "Sketchfab-14.71.0",
    "version": "2.0"
  },
  "bufferViews": [
    {
      "buffer": 0,
      "byteLength": 643680,
      "name": "floatBufferViews",
      "target": 34963
    },
    {
      "buffer": 0,
      "byteLength": 995296,
      "byteOffset": 643680,
      "byteStride": 8,
      "name": "floatBufferViews",
      "target": 34962
    },
    {
      "buffer": 0,
      "byteLength": 1248144,
      "byteOffset": 1638976,
      "byteStride": 12,
      "name": "floatBufferViews",
      "target": 34962
    },
    {
      "buffer": 0,
      "byteLength": 579248,
      "byteOffset": 2887120,
      "byteStride": 16,
      "name": "floatBufferViews",
      "target": 34962
    }
  ],
  "buffers": [
    {
      "byteLength": 3466368,
      "uri": "scene.bin"
    }
  ],
  "images": [
    {
      "uri": "textures/StingrayPBS6_baseColor.jpeg"
    },
    {
      "uri": "textures/StingrayPBS6_metallicRoughness.png"
    },
    {
      "uri": "textures/StingrayPBS6_normal.jpeg"
    }
  ],
  "materials": [
    {
      "alphaMode": "BLEND",
      "name": "StingrayPBS5",
      "pbrMetallicRoughness": {
        "baseColorFactor": [
          0.1,
          0.1,
          0.1,
          0.2
        ],
        "metallicFactor": 0.0
      }
    },
    {
      "name": "StingrayPBS6",
      "normalTexture": {
        "index": 2
      },
      "occlusionTexture": {
        "index": 1
      },
      "pbrMetallicRoughness": {
        "baseColorTexture": {
          "index": 0
        },
        "metallicFactor": 0.0,
        "metallicRoughnessTexture": {
          "index": 1
        },
        "roughnessFactor": 0.33
      }
    },
    {
      "name": "StingrayPBS3",
      "pbrMetallicRoughness": {
        "baseColorFactor": [
          0.0,
          0.0,
          0.0,
          1.0
        ],
        "metallicFactor": 0.0
      }
    },
    {
      "name": "StingrayPBS4",
      "pbrMetallicRoughness": {
        "metallicFactor": 0.0
      }
    },
    {
      "name": "StingrayPBS2",
      "pbrMetallicRoughness": {
        "baseColorFactor": [
          0.0451,
          0.0512,
          0.0561,
          1.0
        ],
        "metallicFactor": 0.0
      }
    }
  ],
  "meshes": [
    {
      "name": "Object_0",
      "primitives": [
        {
          "attributes": {
            "NORMAL": 1,
            "POSITION": 0,
            "TEXCOORD_0": 2
          },
          "indices": 3,
          "material": 0,
          "mode": 4
        }
      ]
    },
    {
      "name": "Object_1",
      "primitives": [
        {
          "attributes": {
            "NORMAL": 5,
            "POSITION": 4,
            "TANGENT": 6,
            "TEXCOORD_0": 7,
            "TEXCOORD_1": 8,
            "TEXCOORD_2": 9
          },
          "indices": 10,
          "material": 1,
          "mode": 4
        }
      ]
    },
    {
      "name": "Object_2",
      "primitives": [
        {
          "attributes": {
            "NORMAL": 12,
            "POSITION": 11,
            "TEXCOORD_0": 13
          },
          "indices": 14,
          "material": 2,
          "mode": 4
        }
      ]
    },
    {
      "name": "Object_3",
      "primitives": [
        {
          "attributes": {
            "NORMAL": 16,
            "POSITION": 15,
            "TEXCOORD_0": 17
          },
          "indices": 18,
          "material": 3,
          "mode": 4
        }
      ]
    },
    {
      "name": "Object_4",
      "primitives": [
        {
          "attributes": {
            "NORMAL": 20,
            "POSITION": 19,
            "TEXCOORD_0": 21
          },
          "indices": 22,
          "material": 4,
          "mode": 4
        }
      ]
    }
  ],
  "nodes": [
    {
      "children": [
        1
      ],
      "matrix": [
        1.0,
        0.0,
        0.0,
        0.0,
        0.0,
        2.220446049250313e-16,
        -1.0,
        0.0,
        0.0,
        1.0,
        2.220446049250313e-16,
        0.0,
        0.0,
        0.0,
        0.0,
        1.0
      ],
      "name": "Sketchfab_model"
    },
    {
      "children": [
        2
      ],
      "name": "root"
    },
    {
      "children": [
        3,
        8
      ],
      "matrix": [
        1.0,
        0.0,
        0.0,
        0.0,
        0.0,
        2.220446049250313e-16,
        1.0,
        0.0,
        0.0,
        -1.0,
        2.220446049250313e-16,
        0.0,
        0.0,
        0.0,
        0.0,
        1.0
      ],
      "name": "GLTF_SceneRootNode"
    },
    {
      "children": [
        4,
        6
      ],
      "name": "group1_0"
    },
    {
      "children": [
        5
      ],
      "name": "female_skin_1"
    },
    {
      "mesh": 0,
      "name": "Object_5"
    },
    {
      "children": [
        7
      ],
      "name": "nervous_system_2"
    },
    {
      "mesh": 1,
      "name": "Object_7"
    },
    {
      "children": [
        9,
        10,
        11
      ],
      "name": "LabelGroup2_3"
    },
    {
      "mesh": 2,
      "name": "Object_9"
    },
    {
      "mesh": 3,
      "name": "Object_10"
    },
    {
      "mesh": 4,
      "name": "Object_11"
    }
  ],
  "samplers": [
    {
      "magFilter": 9729,
      "minFilter": 9987,
      "wrapS": 10497,
      "wrapT": 10497
    }
  ],
  "scene": 0,
  "scenes": [
    {
      "name": "Sketchfab_Scene",
      "nodes": [
        0
      ]
    }
  ],
  "textures": [
    {
      "sampler": 0,
      "source": 0
    },
    {
      "sampler": 0,
      "source": 1
    },
    {
      "sampler": 0,
      "source": 2
    }
  ]
}
