{
  "accessors": [
    {
      "bufferView": 2,
      "componentType": 5126,
      "count": 32361,
      "max": [
        0.36405903100967407,
        1.7776561975479126,
        0.16999594867229462
      ],
      "min": [
        -0.36407676339149475,
        -0.003840916557237506,
        -0.08662372082471848
      ],
      "type": "VEC3"
    },
    {
      "bufferView": 2,
      "byteOffset": 388332,
      "componentType": 5126,
      "count": 32361,
      "max": [
        1.0,
        1.0,
        1.0
      ],
      "min": [
        -1.0,
        -0.9999094605445862,
        -1.0
      ],
      "type": "VEC3"
    },
    {
      "bufferView": 3,
      "componentType": 5126,
      "count": 32361,
      "max": [
        0.9999938607215881,
        0.9999837279319763,
        0.9997753500938416,
        1.0
      ],
      "min": [
        -0.999997079372406,
        -0.9999406933784485,
        -0.9999840259552002,
        -1.0
      ],
      "type": "VEC4"
    },
    {
      "bufferView": 1,
      "componentType": 5126,
      "count": 32361,
      "max": [
        0.9984118938446045,
        0.9998648166656494
      ],
      "min": [
        6.759073585271835e-05,
        0.0020971298217773438
      ],
      "type": "VEC2"
    },
    {
      "bufferView": 1,
      "byteOffset": 258888,
      "componentType": 5126,
      "count": 32361,
      "max": [
        0.9984118938446045,
        0.9998648166656494
      ],
      "min": [
        6.759073585271835e-05,
        0.0020971298217773438
      ],
      "type": "VEC2"
    },
    {
      "bufferView": 1,
      "byteOffset": 517776,
      "componentType": 5126,
      "count": 32361,
      "max": [
        0.9984118938446045,
        0.9998648166656494
      ],
      "min": [
        6.759073585271835e-05,
        0.0020971298217773438
      ],
      "type": "VEC2"
    },
    {
      "bufferView": 0,
      "componentType": 5125,
      "count": 96948,
      "type": "SCALAR"
    },
    {
      "bufferView": 2,
      "byteOffset": 776664,
      "componentType": 5126,
      "count": 2780,
      "max": [
        0.3895936608314514,
        1.788472294807434,
        0.09600724279880524
      ],
      "min": [
        -0.2785786986351013,
        0.15299677848815918,
        -0.03962548077106476
      ],
      "type": "VEC3"
    },
    {
      "bufferView": 2,
      "byteOffset": 810024,
      "componentType": 5126,
      "count": 2780,
      "max": [
        0.9931888580322266,
        1.0,
        1.0
      ],
      "min": [
        -0.9931885600090027,
        -1.0,
        -1.0
      ],
      "type": "VEC3"
    },
    {
      "bufferView": 1,
      "byteOffset": 776664,
      "componentType": 5126,
      "count": 2780,
      "max": [
        1.0,
        1.0000001192092896
      ],
      "min": [
        0.0,
        0.0
      ],
      "type": "VEC2"
    },
    {
      "bufferView": 0,
      "byteOffset": 387792,
      "componentType": 5125,
      "count": 11760,
      "type": "SCALAR"
    },
    {
      "bufferView": 2,
      "byteOffset": 843384,
      "componentType": 5126,
      "count": 1680,
      "max": [
        0.5985950827598572,
        1.8701303005218506,
        0.0931706577539444
      ],
      "min": [
        -0.4922073185443878,
        0.24930500984191895,
        -0.03815619274973869
      ],
      "type": "VEC3"
    },
    {
      "bufferView": 2,
      "byteOffset": 863544,
      "componentType": 5126,
      "count": 1680,
      "max": [
        1.0,
        0.9999964833259583,
        1.0
      ],
      "min": [
        -0.9970660209655762,
        -0.9999964237213135,
        -1.0
      ],
      "type": "VEC3"
    },
    {
      "bufferView": 1,
      "byteOffset": 798904,
      "componentType": 5126,
      "count": 1680,
      "max": [
        0.65625,
        0.9998853206634521
      ],
      "min": [
        0.3442084491252899,
        0.00011467933654785156
      ],
      "type": "VEC2"
    },
    {
      "bufferView": 0,
      "byteOffset": 434832,
      "componentType": 5125,
      "count": 4920,
      "type": "SCALAR"
    },
    {
      "bufferView": 2,
      "byteOffset": 883704,
      "componentType": 5126,
      "count": 4224,
      "max": [
        0.5487787127494812,
        1.8446177244186401,
        0.09414131939411163
      ],
      "min": [
        -0.44672897458076477,
        0.2755388021469116,
        -0.038788821548223495
      ],
      "type": "VEC3"
    },
    {
      "bufferView": 2,
      "byteOffset": 934392,
      "componentType": 5126,
      "count": 4224,
      "max": [
        2.6068817078339634e-06,
        0.0,
        1.0
      ],
      "min": [
        -2.637129000504501e-06,
        0.0,
        -1.0
      ],
      "type": "VEC3"
    },
    {
      "bufferView": 1,
      "byteOffset": 812344,
      "componentType": 5126,
      "count": 4224,
      "max": [
        0.9980080723762512,
        0.99837327003479
      ],
      "min": [
        0.0018320879898965359,
        0.0019919872283935547
      ],
      "type": "VEC2"
    },
    {
      "bufferView": 0,
      "byteOffset": 454512,
      "componentType": 5125,
      "count": 12144,
      "type": "SCALAR"
    }
  ],
  "asset": {
    "extras": {
      "author": "brianj.seely (https://sketchfab.com/brianj.seely)",
      "license": "CC-BY-4.0 (http://creativecommons.org/licenses/by/4.0/)",
      "source": "https://sketchfab.com/3d-models/skeletal-system-a16faac00e9944f7a80ed390844e221f",
      "title": "Skeletal System"
    },
    "generator": "Sketchfab-14.71.0",
    "version": "2.0"
  },
  "bufferViews": [
    {
      "buffer": 0,
      "byteLength": 503088,
      "name": "floatBufferViews",
      "target": 34963
    },
    {
      "buffer": 0,
      "byteLength": 846136,
      "byteOffset": 503088,
      "byteStride": 8,
      "name": "floatBufferViews",
      "target": 34962
    },
    {
      "buffer": 0,
      "byteLength": 985080,
      "byteOffset": 1349224,
      "byteStride": 12,
      "name": "floatBufferViews",
      "target": 34962
    },
    {
      "buffer": 0,
      "byteLength": 517776,
      "byteOffset": 2334304,
      "byteStride": 16,
      "name": "floatBufferViews",
      "target": 34962
    }
  ],
  "buffers": [
    {
      "byteLength": 2852080,
      "uri": "scene.bin"
    }
  ],
  "images": [
    {
      "uri": "textures/StingrayPBS1_baseColor.jpeg"
    },
    {
      "uri": "textures/StingrayPBS1_metallicRoughness.png"
    },
    {
      "uri": "textures/StingrayPBS1_normal.jpeg"
    }
  ],
  "materials": [
    {
      "name": "StingrayPBS1",
      "normalTexture": {
        "index": 2
      },
      "occlusionTexture": {
        "index": 1
      },
      "pbrMetallicRoughness": {
        "baseColorTexture": {
          "index": 0
        },
        "metallicFactor": 0.0,
        "metallicRoughnessTexture": {
          "index": 1
        },
        "roughnessFactor": 0.6
      }
    },
    {
      "name": "lambert3",
      "pbrMetallicRoughness": {
        "baseColorFactor": [
          0.0,
          0.0,
          0.0,
          1.0
        ],
        "metallicFactor": 0.0,
        "roughnessFactor": 0.450054
      }
    },
    {
      "name": "StingrayPBS2",
      "pbrMetallicRoughness": {
        "baseColorFactor": [
          0.0451,
          0.0512,
          0.0561,
          1.0
        ],
        "metallicFactor": 0.0
      }
    },
    {
      "name": "textShader1",
      "pbrMetallicRoughness": {
        "metallicFactor": 0.0,
        "roughnessFactor": 0.450054
      }
    }
  ],
  "meshes": [
    {
      "name": "Object_0",
      "primitives": [
        {
          "attributes": {
            "NORMAL": 1,
            "POSITION": 0,
            "TANGENT": 2,
            "TEXCOORD_0": 3,
            "TEXCOORD_1": 4,
            "TEXCOORD_2": 5
          },
          "indices": 6,
          "material": 0,
          "mode": 4
        }
      ]
    },
    {
      "name": "Object_1",
      "primitives": [
        {
          "attributes": {
            "NORMAL": 8,
            "POSITION": 7,
            "TEXCOORD_0": 9
          },
          "indices": 10,
          "material": 1,
          "mode": 4
        }
      ]
    },
    {
      "name": "Object_2",
      "primitives": [
        {
          "attributes": {
            "NORMAL": 12,
            "POSITION": 11,
            "TEXCOORD_0": 13
          },
          "indices": 14,
          "material": 2,
          "mode": 4
        }
      ]
    },
    {
      "name": "Object_3",
      "primitives": [
        {
          "attributes": {
            "NORMAL": 16,
            "POSITION": 15,
            "TEXCOORD_0": 17
          },
          "indices": 18,
          "material": 3,
          "mode": 4
        }
      ]
    }
  ],
  "nodes": [
    {
      "children": [
        1
      ],
      "matrix": [
        1.0,
        0.0,
        0.0,
        0.0,
        0.0,
        2.220446049250313e-16,
        -1.0,
        0.0,
        0.0,
        1.0,
        2.220446049250313e-16,
        0.0,
        0.0,
        0.0,
        0.0,
        1.0
      ],
      "name": "Sketchfab_model"
    },
    {
      "children": [
        2
      ],
      "name": "root"
    },
    {
      "children": [
        3
      ],
      "matrix": [
        1.0,
        0.0,
        0.0,
        0.0,
        0.0,
        2.220446049250313e-16,
        1.0,
        0.0,
        0.0,
        -1.0,
        2.220446049250313e-16,
        0.0,
        0.0,
        0.0,
        0.0,
        1.0
      ],
      "name": "GLTF_SceneRootNode"
    },
    {
      "children": [
        4,
        6
      ],
      "matrix": [
        -1.0,
        0.0,
        -1.2246468525851679e-16,
        0.0,
        0.0,
        1.0,
        0.0,
        0.0,
        1.2246468525851679e-16,
        0.0,
        -1.0,
        0.0,
        0.0,
        0.0,
        0.0,
        1.0
      ],
      "name": "group10_0"
    },
    {
      "children": [
        5
      ],
      "name": "SkeletonV2_1"
    },
    {
      "mesh": 0,
      "name": "Object_5"
    },
    {
      "children": [
        7,
        8,
        9
      ],
      "name": "LabelGroup3_2"
    },
    {
      "mesh": 1,
      "name": "Object_7"
    },
    {
      "mesh": 2,
      "name": "Object_8"
    },
    {
      "mesh": 3,
      "name": "Object_9"
    }
  ],
  "samplers": [
    {
      "magFilter": 9729,
      "minFilter": 9987,
      "wrapS": 10497,
      "wrapT": 10497
    }
  ],
  "scene": 0,
  "scenes": [
    {
      "name": "Sketchfab_Scene",
      "nodes": [
        0
      ]
    }
  ],
  "textures": [
    {
      "sampler": 0,
      "source": 0
    },
    {
      "sampler": 0,
      "source": 1
    },
    {
      "sampler": 0,
      "source": 2
    }
  ]
}
